<svg xmlns="http://www.w3.org/2000/svg" xmlns:xlink="http://www.w3.org/1999/xlink" width="67" height="55" viewBox="0 0 67 55">
  <defs>
    <clipPath id="clip-path">
      <rect id="Rectangle_2608" data-name="Rectangle 2608" width="67" height="55" transform="translate(-4551 -1905)" fill="#fff" stroke="#707070" stroke-width="1"/>
    </clipPath>
    <filter id="Ellipse_167" x="9.03" y="0.214" width="61" height="61" filterUnits="userSpaceOnUse">
      <feOffset dy="3" input="SourceAlpha"/>
      <feGaussianBlur stdDeviation="3" result="blur"/>
      <feFlood flood-opacity="0.161"/>
      <feComposite operator="in" in2="blur"/>
      <feComposite in="SourceGraphic"/>
    </filter>
  </defs>
  <g id="Mask_Group_61" data-name="Mask Group 61" transform="translate(4551 1905)" clip-path="url(#clip-path)">
    <g id="Group_3821" data-name="Group 3821" transform="translate(-4582.97 -2165.96)">
      <g id="Group_3596" data-name="Group 3596" transform="translate(31.97 261.96)">
        <g id="Group_451" data-name="Group 451">
          <path id="Path_827" data-name="Path 827" d="M472.853,891.739a27.4,27.4,0,1,1,0-54.792h0a27.4,27.4,0,1,1,0,54.792Zm0-52.792a25.4,25.4,0,1,0,25.4,25.4,25.227,25.227,0,0,0-25.4-25.4Z" transform="translate(-433.702 -837.947)" fill="#4ced72"/>
          <path id="Path_828" data-name="Path 828" d="M443.041,865.324A32.907,32.907,0,0,1,450.6,844c-7.861,4.193-13.145,11.96-13.145,20.856a23.653,23.653,0,0,0,11.8,20.1A33.233,33.233,0,0,1,443.041,865.324Z" transform="translate(-432.8 -838.531)" fill="#4ced72"/>
          <path id="Path_829" data-name="Path 829" d="M435.441,865.478A33.054,33.054,0,0,1,439.477,849c-4.2,3.24-7.023,9.242-7.023,16.116,0,6.477,2.505,12.182,6.3,15.529a34.06,34.06,0,0,1-3.318-15.167Z" transform="translate(-432.454 -838.876)" fill="#4ced72"/>
        </g>
        <g transform="matrix(1, 0, 0, 1, 0, -1)" filter="url(#Ellipse_167)">
          <circle id="Ellipse_167-2" data-name="Ellipse 167" cx="21.5" cy="21.5" r="21.5" transform="translate(18.03 6.21)" fill="#1a1a1c"/>
        </g>
      </g>
      <text id="_50_" data-name="50 +" transform="translate(62 291.174)" fill="#fff" font-size="9" font-family="ProximaNova-Bold, Proxima Nova" font-weight="700" letter-spacing="-0.02em"><tspan x="0" y="0">50 +</tspan></text>
    </g>
  </g>
</svg>
