<svg xmlns="http://www.w3.org/2000/svg" xmlns:xlink="http://www.w3.org/1999/xlink" width="67" height="55" viewBox="0 0 67 55">
  <defs>
    <clipPath id="clip-path">
      <rect id="Rectangle_2608" data-name="Rectangle 2608" width="67" height="55" transform="translate(-4551 -1905)" fill="#fff" stroke="#707070" stroke-width="1"/>
    </clipPath>
    <filter id="Ellipse_168" x="9.765" y="0.214" width="61" height="61" filterUnits="userSpaceOnUse">
      <feOffset dy="3" input="SourceAlpha"/>
      <feGaussianBlur stdDeviation="3" result="blur"/>
      <feFlood flood-opacity="0.161"/>
      <feComposite operator="in" in2="blur"/>
      <feComposite in="SourceGraphic"/>
    </filter>
  </defs>
  <g id="Mask_Group_61" data-name="Mask Group 61" transform="translate(4551 1905)" clip-path="url(#clip-path)">
    <g id="Group_3824" data-name="Group 3824" transform="translate(-5.235 -78)">
      <g id="Group_3822" data-name="Group 3822" transform="translate(-4545.765 -1826)">
        <g id="Group_452" data-name="Group 452">
          <path id="Path_827" data-name="Path 827" d="M472.853,891.739a27.4,27.4,0,1,1,0-54.792h0a27.4,27.4,0,1,1,0,54.792Zm0-52.792a25.4,25.4,0,1,0,25.4,25.4,25.227,25.227,0,0,0-25.4-25.4Z" transform="translate(-433.009 -837.947)" fill="#ff7a7a"/>
          <path id="Path_828" data-name="Path 828" d="M443.075,865.453A33.1,33.1,0,0,1,450.681,844c-7.908,4.218-13.224,12.032-13.224,20.982A23.8,23.8,0,0,0,449.333,885.2,33.433,33.433,0,0,1,443.075,865.453Z" transform="translate(-432.772 -838.497)" fill="#ff7a7a"/>
          <path id="Path_829" data-name="Path 829" d="M435.459,865.577A33.253,33.253,0,0,1,439.52,849c-4.224,3.259-7.066,9.3-7.066,16.213,0,6.516,2.52,12.255,6.342,15.623a34.266,34.266,0,0,1-3.338-15.258Z" transform="translate(-432.454 -838.814)" fill="#ff7a7a"/>
        </g>
        <g transform="matrix(1, 0, 0, 1, 0, -1)" filter="url(#Ellipse_168)">
          <circle id="Ellipse_168-2" data-name="Ellipse 168" cx="21.5" cy="21.5" r="21.5" transform="translate(18.76 6.21)" fill="#1a1a1c"/>
        </g>
      </g>
      <text id="_30_" data-name="30 +" transform="translate(-4515 -1796.786)" fill="#fff" font-size="9" font-family="ProximaNova-Bold, Proxima Nova" font-weight="700" letter-spacing="-0.02em"><tspan x="0" y="0">30 +</tspan></text>
    </g>
  </g>
</svg>
